<svg width="28" height="27" viewBox="0 0 28 27" fill="none" xmlns="http://www.w3.org/2000/svg">
<path d="M19.1634 9.35297C19.0462 9.04957 18.8668 8.77407 18.6368 8.54422C18.4067 8.31437 18.131 8.13526 17.8274 8.01844C17.4095 7.86364 16.9681 7.78183 16.5224 7.77656C15.7814 7.74281 15.5592 7.73437 13.6818 7.73437C11.8045 7.73437 11.5823 7.74281 10.8412 7.77656C10.3951 7.78167 9.95317 7.86348 9.53479 8.01844C9.23139 8.13558 8.95589 8.31498 8.72604 8.54507C8.49619 8.77516 8.31709 9.05085 8.20026 9.35437C8.04547 9.7723 7.96365 10.2137 7.95839 10.6594C7.92464 11.4005 7.9162 11.6227 7.9162 13.5C7.9162 15.3773 7.92464 15.5995 7.95839 16.3406C7.96349 16.7867 8.04531 17.2287 8.20026 17.647C8.31741 17.9504 8.4968 18.2259 8.7269 18.4558C8.95699 18.6856 9.23268 18.8647 9.5362 18.9816C9.95413 19.1364 10.3956 19.2182 10.8412 19.2234C11.5823 19.2572 11.8045 19.2642 13.6818 19.2642C15.5592 19.2642 15.7814 19.2572 16.5224 19.222C16.9685 19.2174 17.4104 19.136 17.8289 18.9816C18.1323 18.8644 18.4078 18.685 18.6376 18.4549C18.8675 18.2248 19.0466 17.9491 19.1634 17.6456C19.3182 17.2277 19.4 16.7863 19.4053 16.3406C19.439 15.5995 19.446 15.3773 19.446 13.5C19.446 11.6227 19.439 11.4005 19.4039 10.6594C19.3992 10.2133 19.3179 9.77143 19.1634 9.35297ZM13.6818 17.1112C12.9676 17.1112 12.2694 16.8995 11.6755 16.5026C11.0817 16.1058 10.6188 15.5418 10.3455 14.882C10.0721 14.2221 10.0006 13.496 10.14 12.7955C10.2793 12.095 10.6232 11.4515 11.1283 10.9465C11.6333 10.4414 12.2768 10.0975 12.9773 9.95814C13.6778 9.8188 14.4039 9.89031 15.0638 10.1636C15.7237 10.437 16.2877 10.8998 16.6845 11.4937C17.0813 12.0876 17.2931 12.7858 17.2931 13.5C17.2931 14.4578 16.9126 15.3763 16.2354 16.0535C15.5581 16.7308 14.6396 17.1112 13.6818 17.1112ZM17.4351 10.5905C17.2682 10.5905 17.1051 10.541 16.9663 10.4483C16.8276 10.3556 16.7194 10.2238 16.6556 10.0696C16.5917 9.91543 16.575 9.74578 16.6076 9.58211C16.6401 9.41844 16.7205 9.2681 16.8385 9.15009C16.9565 9.03209 17.1068 8.95174 17.2705 8.91918C17.4342 8.88662 17.6038 8.90333 17.758 8.96719C17.9122 9.03105 18.0439 9.1392 18.1367 9.27795C18.2294 9.41671 18.2789 9.57984 18.2789 9.74672C18.2789 9.97049 18.19 10.1851 18.0317 10.3433C17.8735 10.5016 17.6589 10.5905 17.4351 10.5905ZM16.026 13.5C16.026 13.9636 15.8886 14.4169 15.631 14.8024C15.3734 15.1879 15.0073 15.4883 14.5789 15.6658C14.1506 15.8432 13.6792 15.8896 13.2245 15.7992C12.7698 15.7087 12.3521 15.4855 12.0242 15.1576C11.6964 14.8298 11.4731 14.4121 11.3826 13.9573C11.2922 13.5026 11.3386 13.0313 11.516 12.6029C11.6935 12.1746 11.9939 11.8084 12.3794 11.5509C12.7649 11.2933 13.2182 11.1558 13.6818 11.1558C14.3035 11.1558 14.8998 11.4028 15.3394 11.8424C15.7791 12.282 16.026 12.8783 16.026 13.5ZM13.6818 0C11.0118 0 8.40169 0.791761 6.18163 2.27516C3.96156 3.75856 2.23123 5.86697 1.20945 8.33377C0.187669 10.8006 -0.0796757 13.515 0.441225 16.1337C0.962125 18.7525 2.24788 21.1579 4.13588 23.0459C6.02389 24.9339 8.42936 26.2197 11.0481 26.7406C13.6668 27.2615 16.3812 26.9942 18.848 25.9724C21.3148 24.9506 23.4233 23.2203 24.9067 21.0002C26.3901 18.7801 27.1818 16.17 27.1818 13.5C27.1818 9.91958 25.7595 6.4858 23.2278 3.95406C20.696 1.42232 17.2622 0 13.6818 0ZM20.6709 16.3983C20.659 16.9818 20.5482 17.559 20.3432 18.1055C20.1626 18.5725 19.8865 18.9966 19.5324 19.3506C19.1784 19.7046 18.7543 19.9808 18.2873 20.1614C17.7413 20.3662 17.1645 20.477 16.5815 20.4891C15.8306 20.5228 15.5915 20.5312 13.6818 20.5312C11.7721 20.5312 11.5331 20.5228 10.7821 20.4891C10.1991 20.477 9.62235 20.3662 9.07635 20.1614C8.60937 19.9808 8.18527 19.7046 7.83122 19.3506C7.47718 18.9966 7.20101 18.5725 7.02042 18.1055C6.81561 17.5595 6.70483 16.9827 6.69276 16.3997C6.65901 15.6487 6.65057 15.4097 6.65057 13.5C6.65057 11.5903 6.65901 11.3512 6.69276 10.6003C6.70438 10.0174 6.81469 9.44061 7.01901 8.89453C7.1996 8.42715 7.47591 8.00268 7.83021 7.64838C8.18451 7.29408 8.60897 7.01777 9.07635 6.83719C9.62244 6.63286 10.1992 6.52255 10.7821 6.51094C11.5331 6.47719 11.7721 6.46875 13.6818 6.46875C15.5915 6.46875 15.8306 6.47719 16.5815 6.51094C17.1644 6.52255 17.7412 6.63286 18.2873 6.83719C18.7544 7.01794 19.1786 7.29432 19.5326 7.64861C19.8867 8.00291 20.1628 8.42728 20.3432 8.89453C20.548 9.44053 20.6588 10.0173 20.6709 10.6003C20.7046 11.3512 20.7131 11.5903 20.7131 13.5C20.7131 15.4097 20.7046 15.6473 20.6709 16.3983Z" fill="#F2F0FE"/>
</svg>
