<svg width="28" height="27" viewBox="0 0 28 27" fill="none" xmlns="http://www.w3.org/2000/svg">
<path d="M16.2997 13.2652L13.1412 11.7914C12.8656 11.6634 12.6392 11.8069 12.6392 12.112V14.888C12.6392 15.1931 12.8656 15.3366 13.1412 15.2086L16.2983 13.7348C16.5753 13.6055 16.5753 13.3945 16.2997 13.2652ZM14.0455 0C6.58952 0 0.545456 6.04406 0.545456 13.5C0.545456 20.9559 6.58952 27 14.0455 27C21.5014 27 27.5455 20.9559 27.5455 13.5C27.5455 6.04406 21.5014 0 14.0455 0ZM14.0455 18.9844C7.13514 18.9844 7.01421 18.3614 7.01421 13.5C7.01421 8.63859 7.13514 8.01562 14.0455 8.01562C20.9558 8.01562 21.0767 8.63859 21.0767 13.5C21.0767 18.3614 20.9558 18.9844 14.0455 18.9844Z" fill="#F2F0FE"/>
</svg>
